<?xml version="1.0" encoding="UTF-8"?>
<svg version="1.1" viewBox="0 0 473 271" xmlns="http://www.w3.org/2000/svg">
<desc>Created with Sketch.</desc>
<g fill="none" fill-rule="evenodd">
<g fill-rule="nonzero">
<path d="m277.25 231.52h-26.84v-8.42c-1.85 1.59-3.08 2.75-4.4 3.78-12.79 9.93-33 9.68-47.16-0.55-27.36-19.73-25.92-64.61 2.56-82.68 14-8.88 36.59-8.21 47.59 3.84 0.38528 0.25244 0.79791 0.46044 1.23 0.62v-7.74h27l0.02 91.15zm-49.05-23.41c12.52 0.1 21.62-8 22-22.05 0.32-13.08-8.81-22.45-21.54-22.65s-22.12 9.19-22.19 22.37 8.79 22.22 21.73 22.33z" fill="#604330"/>
<path d="m331.74 165.64h-42v-25.2h83.19c0 5.81 0.11 11.58-0.09 17.34 0 1.12-1.16 2.26-1.92 3.3-11.61 13.47-25.09 27.92-37.92 41.85-0.61 0.84-1.12 1.25-2.59 3h44.13v25.48h-87c0-5.79-0.07-11.55 0.07-17.31 0-1 0.86-2 1.49-2.83 14.17-14.35 27.14-28.57 41.24-43.43 0.52198-0.69663 0.99001-1.4321 1.4-2.2z" fill="#604330"/>
<path d="m117.73 140.39h27.16v14.61c5.5-11.62 18.6-16.08 30.87-16.78v30.68c-3.36 0.18-10.27 0-13.52 0.6-11.07 2.07-17.21 9.55-17.29 20.89-0.09 12.46 0 24.92 0 37.38v3.68h-27.22v-91.06z" fill="#604330"/>
<path d="m54.9 162.67c-12.85 0-22.18 8.74-22.35 21s9.23 21.5 22.14 21.6 22.46-9.13 22.35-21.39-9.35-21.19-22.14-21.21z" fill="#604330"/>
<path d="m424.6 138.47c-26.31 0-45.6 20.41-45.6 45.53 0 30.39 22.2 49.39 48.21 49.39 14.9 0 33-6.07 44.17-26.23l-21.62-10c-5.2 7.56-11.94 12.3-21.38 12.29-6.61 0-11.55-1.93-15.4-6.14l59.62-27.31c-6.53-24.78-24.53-37.53-48-37.53zm-6.75 24.2c8.22-3.25 17.78-1.69 23.83 5.8l-36.68 16.17c-1.08-10.64 4.38-18.64 12.85-21.97z" fill="#604330"/>
<path d="m77.69 146.54c-6.36-5.68-14.63-8.87-24.46-8.87-26.25 0-45.46 21.25-45.46 47.46s19.47 47.46 45.72 47.46c8.9987 0.075969 17.671-3.3651 24.17-9.59-0.55 17.24-13.35 22.27-24.07 22.27-8.36 0-18.37-4.23-24.1-8.57l-12 22.4c10.23 7.44 22 11.45 37 11.45 23.18 0 49.31-13.42 49.31-48.48v-81.73h-26.1l-0.01 6.2z" fill="#604330"/>
<circle cx="56.18" cy="185.65" r="16.73" fill="#fff"/>
<path d="m164.51 37.26c-0.9-0.08-1.8-0.12-2.69-0.14-0.56464-10.215-6.6789-19.301-15.93-23.67-9.2507-4.3697-20.152-3.3217-28.4 2.7303-11.481-12.314-29.121-16.742-45.057-11.311-15.936 5.4307-27.2 19.709-28.773 36.471 0 0.36 0 0.72-0.08 1.08-15.495 0.76302-28.911 11.013-33.719 25.763-4.8083 14.75-0.011185 30.937 12.057 40.686 12.069 9.7485 28.903 11.034 42.312 3.2312 10.855 10.53 25.618 16.044 40.718 15.209 15.101-0.83565 29.165-7.9448 38.792-19.609 13.395 6.9604 29.662 5.1878 41.243-4.4944 11.582-9.6822 16.209-25.377 11.734-39.794-4.4759-14.417-17.178-24.731-32.207-26.152z" fill="#fff"/>
<path d="m102 129.19c-1.76 0-3.52-0.09-5.29-0.25-12.222-1.1128-23.729-6.2556-32.71-14.62-12.734 6.8578-28.21 6.1463-40.261-1.8509s-18.72-21.981-17.349-36.379c1.851-18.769 16.743-33.594 35.52-35.36 1.7805-17.089 13.228-31.633 29.421-37.378s34.246-1.6683 46.399 10.478c8.6278-5.653 19.572-6.4193 28.904-2.0239 9.3314 4.3954 15.71 13.322 16.846 23.574l1.2 0.09c15.566 1.4843 28.76 12.077 33.575 26.954 4.8142 14.877 0.3268 31.192-11.418 41.514-11.745 10.322-28.501 12.677-42.636 5.9923-10.621 12.218-26.011 19.242-42.2 19.26zm-37.45-19.33l1 1c8.5089 8.2974 19.614 13.414 31.45 14.49 17.296 1.6386 34.279-5.4034 45.34-18.8l0.93-1.12 1.29 0.67c12.753 6.6875 28.279 5.0359 39.339-4.1848 11.061-9.2208 15.48-24.196 11.196-37.944s-16.425-23.564-30.766-24.871c-0.86-0.08-1.71-0.12-2.56-0.14h-1.66l-0.11-1.74c-0.53123-9.557-6.2531-18.056-14.908-22.143s-18.854-3.1076-26.572 2.5534l-1.28 0.94-1.09-1.17c-11.016-11.757-27.897-15.972-43.147-10.773-15.25 5.1982-26.041 18.846-27.583 34.883v0.66l-0.13 2-1.6 0.08c-14.747 0.73072-27.512 10.489-32.087 24.527-4.5744 14.038-0.0083552 29.444 11.477 38.722 11.485 9.2784 27.506 10.504 40.269 3.0809l1.2-0.72z" fill="#604330"/>
<path d="m48.25 147.78c0-12.669-10.271-22.94-22.94-22.94s-22.94 10.271-22.94 22.94 10.271 22.94 22.94 22.94c12.656-0.032972 22.907-10.284 22.94-22.94z" fill="#fff"/>
<path d="m25.31 172.72c-13.774 0-24.94-11.166-24.94-24.94s11.166-24.94 24.94-24.94 24.94 11.166 24.94 24.94c-0.032985 13.76-11.18 24.907-24.94 24.94zm0-45.88c-11.565 0-20.94 9.3752-20.94 20.94s9.3752 20.94 20.94 20.94 20.94-9.3752 20.94-20.94c-0.032956-11.551-9.3888-20.907-20.94-20.94z" fill="#604330"/>
</g>
</g>
</svg>
